<svg id="Layer_1" data-name="Layer 1" xmlns="http://www.w3.org/2000/svg" viewBox="0 0 640 480"><defs><style>.cls-1,.cls-2{fill:#faaf40;}.cls-2{stroke:#fbb03b;stroke-miterlimit:10;stroke-width:2.08px;}</style></defs><title>Artboard 1</title><path class="cls-1" d="M36.53,56.35H170v64.36c23.31-29.88,67.53-45.58,77.08-47.8,35.32-8.22,100.69,1,100.69,1l-.51,21.4C287.58,98.06,243.14,151,236.48,199.27c-54.6-2.82-65.79,4.09-66.45,44.33V367.76c1.22,31.91-10.82,54.45-44.12,54.45H2.87c27.2,0,34.9-26.89,34.37-57.78Z"/><path class="cls-1" d="M440.3,103.24c-87.88,0-88.16,142.23-88.16,142.23s-13.62,151.69,98.42,153.46c0,0-116,5.46-147.27-9.42-55.16-26.24-55.07-102.73-55.16-141.89-.08-38.52,16.24-118.48,79.57-136.4C358,102.65,440.3,103.24,440.3,103.24Z"/><path class="cls-2" d="M587.34,90.9H453.87v31l0,122.89V368.91c-1.22,31.91,10.82,54.46,44.13,54.46H621c-27.2,0-34.9-26.89-34.37-57.79Z"/></svg>