<svg id="Layer_1" data-name="Layer 1" xmlns="http://www.w3.org/2000/svg" xmlns:xlink="http://www.w3.org/1999/xlink" viewBox="0 0 216 180"><defs><style>.cls-1,.cls-3,.cls-5{fill:none;}.cls-2{clip-path:url(#clip-path);}.cls-3{stroke:#fab279;stroke-width:2.73px;}.cls-3,.cls-5{stroke-miterlimit:10;}.cls-4{fill:#666;}.cls-5{stroke:#fbb03b;}</style><clipPath id="clip-path"><rect class="cls-1" y="-108" width="360" height="288"/></clipPath></defs><title>Artboard 1</title><g class="cls-2"><line class="cls-3" x1="1.93" y1="150.51" x2="-38.05" y2="125.51"/><line class="cls-3" x1="10.98" y1="143.82" x2="-28.99" y2="118.82"/><line class="cls-3" x1="20.03" y1="137.12" x2="-19.94" y2="112.13"/><line class="cls-3" x1="27.78" y1="130.78" x2="-12.2" y2="105.78"/><line class="cls-3" x1="36.83" y1="124.08" x2="-3.15" y2="99.09"/><line class="cls-3" x1="45.88" y1="117.39" x2="5.9" y2="92.39"/><line class="cls-3" x1="54.89" y1="109.28" x2="14.91" y2="84.29"/><line class="cls-3" x1="63.94" y1="102.59" x2="23.96" y2="77.59"/><line class="cls-3" x1="72.99" y1="95.89" x2="33.01" y2="70.9"/><line class="cls-3" x1="82" y1="87.79" x2="42.02" y2="62.79"/><line class="cls-3" x1="91.05" y1="81.09" x2="51.08" y2="56.1"/><line class="cls-3" x1="83.91" y1="64.52" x2="60.13" y2="49.4"/><line class="cls-3" x1="73.89" y1="43.17" x2="70.45" y2="40.95"/><rect class="cls-4" x="31" y="160" width="153" height="39" transform="translate(-90.3 111.3) rotate(-40.06)"/><rect class="cls-5" x="-34" y="143" width="153" height="39" transform="translate(-94.61 65.48) rotate(-40.06)"/></g></svg>